<svg xmlns="http://www.w3.org/2000/svg" xml:space="preserve" viewBox="0 0 1000 1080"><path fill="#4172FC" d="M796.04 244.17h46.289c-2.273 6.747-4.302 13.138-6.574 19.441-5.34 14.811-10.823 29.571-16.201 44.368-11.423 31.434-22.898 62.85-34.197 94.329-11.236 31.302-22.251 62.682-33.425 94.006-7.636 21.407-15.306 42.801-23.09 64.155-12.173 33.401-24.51 66.742-36.674 100.15-11.44 31.417-22.721 62.892-34.204 94.293-.469 1.282-2.292 2.946-3.493 2.953-26.98.169-53.96.13-81.115.13-24.27-67.31-48.478-134.44-73.012-202.48l-73.019 202.48c-26.363 0-52.844.045-79.324-.131-1.362-.01-3.458-1.642-3.955-2.985-7.61-20.54-14.99-41.167-22.468-61.757-9.31-25.636-18.743-51.227-27.975-76.89-12.637-35.133-25.109-70.323-37.699-105.47a20919.945 20919.945 0 0 0-27.056-75.113c-11.062-30.515-22.231-60.992-33.302-91.505-11.355-31.294-22.651-62.61-33.955-93.922-.65-1.801-1.144-3.66-1.925-6.182 15.51 0 30.437 0 45.893.423 60.372 166.3 120.22 332.18 180.49 499.26 38.23-106.04 75.951-210.66 113.67-315.29l1.292.123c37.948 105.24 75.897 210.49 114.22 316.79 4.134-11.16 7.86-20.934 11.382-30.78 10.615-29.685 21.09-59.419 31.739-89.09 5.553-15.476 11.444-30.83 17.025-46.295 10.138-28.093 20.116-56.244 30.24-84.343 10.973-30.45 22.063-60.857 33.05-91.3 8.009-22.188 15.912-44.414 23.902-66.607 11.135-30.928 22.308-61.842 33.465-92.762z"/><path fill="#4FAAFD" d="M795.58 244.1c-10.689 30.984-21.862 61.898-32.997 92.826-7.99 22.194-15.893 44.419-23.901 66.606-10.988 30.444-22.078 60.851-33.05 91.301-10.125 28.098-20.103 56.249-30.241 84.343-5.581 15.465-11.471 30.819-17.025 46.294-10.648 29.672-21.124 59.407-31.739 89.091-3.52 9.846-7.247 19.619-11.382 30.78-38.328-106.3-76.276-211.54-114.22-316.79l-1.291-.124c-37.721 104.62-75.442 209.25-113.67 315.29-60.275-167.08-120.12-332.96-180.03-499.2a894.718 894.718 0 0 1 46.493-.034c1.99 5.137 3.372 9.875 5.05 14.506 4.4 12.152 8.999 24.232 13.392 36.387 9.353 25.876 18.63 51.779 27.931 77.673 6.263 17.435 12.498 34.879 18.778 52.308a20195.435 20195.435 0 0 0 20.953 57.924c3.008 8.268 6.245 16.455 9.21 24.738 5.546 15.499 10.95 31.05 16.452 46.565 4.216 11.886 8.442 23.768 12.762 35.616 2.742 7.517 5.665 14.969 8.506 22.45l1.178.051c37.643-104.41 75.286-208.83 112.93-313.24l1.315.006c37.927 105.11 75.855 210.22 113.88 315.61.906-.752 1.48-.988 1.623-1.382a9347.6 9347.6 0 0 0 15.442-42.934c4.663-13.086 9.199-26.217 13.898-39.29 4.03-11.212 8.272-22.348 12.314-33.555 6.959-19.294 13.81-38.626 20.754-57.925 4.654-12.933 9.455-25.813 14.071-38.759 4.278-11.999 8.28-24.096 12.622-36.07 4.291-11.835 8.97-23.528 13.276-35.356 8.495-23.334 16.884-46.707 25.234-70.094 1.826-5.114 3.305-10.354 4.944-15.535 15.358-.045 30.715-.09 46.54-.072z"/><path fill="#4ACCFE" d="M748.57 244.11c-1.17 5.245-2.65 10.484-4.476 15.599-8.35 23.387-16.739 46.76-25.234 70.094-4.306 11.829-8.984 23.522-13.276 35.355-4.342 11.975-8.344 24.073-12.622 36.071-4.616 12.946-9.417 25.826-14.07 38.759-6.945 19.299-13.797 38.631-20.755 57.925-4.042 11.208-8.283 22.343-12.314 33.555-4.699 13.073-9.235 26.204-13.898 39.29a9235.259 9235.259 0 0 1-15.442 42.934c-.142.393-.717.63-1.623 1.381-38.029-105.39-75.956-210.5-113.88-315.61l-1.315-.005c-37.643 104.41-75.286 208.83-112.93 313.24l-1.178-.052c-2.841-7.48-5.764-14.933-8.505-22.45-4.32-11.848-8.547-23.73-12.762-35.616-5.504-15.515-10.906-31.065-16.453-46.565-2.965-8.283-6.201-16.47-9.21-24.738a20116.375 20116.375 0 0 1-20.952-57.924c-6.28-17.428-12.515-34.873-18.778-52.308-9.302-25.894-18.578-51.798-27.931-77.673-4.394-12.155-8.993-24.235-13.393-36.387-1.678-4.63-3.06-9.369-4.588-14.44 15.136-.381 30.282-.381 45.595-.381 28.993 80.387 57.965 160.72 87.441 242.44 29.36-81.384 58.386-161.85 87.518-242.6 16.953 0 33.932-.076 50.908.15 1.289.018 3.195 1.944 3.725 3.383 6.49 17.636 12.722 35.366 19.128 53.033 11.08 30.556 22.315 61.056 33.336 91.633 10.916 30.284 21.64 60.638 32.49 90.946.43 1.198 1.272 2.247 2.5 4.36l87.834-243.48c15.012 0 29.829 0 45.114.063z"/></svg>