<?xml version="1.0" encoding="UTF-8"?>
<svg enable-background="new 0 0 1000 1080" version="1.1" viewBox="0 0 1e3 1080" xml:space="preserve" xmlns="http://www.w3.org/2000/svg">
<path d="m796.04 244.17h46.289c-2.2732 6.7475-4.3019 13.138-6.5742 19.441-5.3401 14.811-10.823 29.571-16.201 44.368-11.423 31.434-22.898 62.85-34.197 94.329-11.236 31.302-22.251 62.682-33.425 94.006-7.636 21.407-15.306 42.801-23.089 64.155-12.174 33.401-24.511 66.742-36.675 100.15-11.44 31.417-22.721 62.892-34.204 94.293-0.46875 1.2817-2.2913 2.9459-3.4924 2.9534-26.98 0.16834-53.961 0.12915-81.115 0.12915-24.271-67.309-48.478-134.44-73.012-202.48-24.503 67.946-48.717 135.09-73.019 202.48-26.363 0-52.844 0.045532-79.324-0.1308-1.3622-0.008972-3.458-1.6419-3.9554-2.9845-7.6107-20.541-14.99-41.167-22.468-61.757-9.3102-25.636-18.743-51.227-27.975-76.891-12.637-35.132-25.109-70.322-37.699-105.47-8.9743-25.053-17.986-50.093-27.056-75.112-11.062-30.515-22.231-60.992-33.302-91.505-11.355-31.294-22.651-62.61-33.955-93.922-0.65041-1.8015-1.1442-3.6596-1.9247-6.1823 15.509 0 30.437 0 45.893 0.42274 60.372 166.3 120.22 332.18 180.49 499.26 38.23-106.04 75.951-210.66 113.67-315.29 0.43048 0.04126 0.86099 0.08255 1.2915 0.12381 37.948 105.24 75.897 210.49 114.22 316.79 4.1344-11.161 7.861-20.934 11.382-30.78 10.615-29.685 21.091-59.419 31.739-89.091 5.5533-15.475 11.444-30.829 17.025-46.294 10.138-28.093 20.116-56.244 30.241-84.343 10.972-30.45 22.062-60.857 33.05-91.301 8.0079-22.187 15.911-44.413 23.901-66.606 11.135-30.928 22.308-61.842 33.465-92.762z" fill="#4172FC"/>
<path d="m795.58 244.1c-10.689 30.984-21.862 61.898-32.997 92.826-7.9904 22.194-15.893 44.419-23.901 66.606-10.988 30.444-22.078 60.851-33.05 91.301-10.125 28.098-20.103 56.249-30.241 84.343-5.5811 15.465-11.471 30.819-17.025 46.294-10.648 29.672-21.124 59.407-31.739 89.091-3.5209 9.8464-7.2475 19.619-11.382 30.78-38.328-106.3-76.276-211.54-114.22-316.79-0.43048-0.04126-0.86099-0.08255-1.2915-0.12381-37.721 104.62-75.442 209.25-113.67 315.29-60.275-167.08-120.12-332.96-180.03-499.2 15.296-0.39923 30.658-0.44086 46.493-0.03447 1.9898 5.1371 3.3726 9.8749 5.0497 14.506 4.4007 12.152 8.9997 24.232 13.393 36.387 9.3532 25.876 18.629 51.779 27.931 77.673 6.2629 17.435 12.498 34.879 18.778 52.308 6.9608 19.316 13.933 38.629 20.953 57.924 3.0082 8.2685 6.2445 16.455 9.2091 24.738 5.5469 15.499 10.95 31.05 16.453 46.565 4.2158 11.886 8.4417 23.768 12.762 35.616 2.7414 7.5176 5.6643 14.969 8.5057 22.45 0.39258 0.017151 0.78516 0.034241 1.1777 0.051331 37.643-104.41 75.286-208.83 112.93-313.24 0.43848 0.001923 0.87692 0.003846 1.3154 0.005799 37.927 105.11 75.855 210.22 113.88 315.61 0.90552-0.75146 1.4807-0.98816 1.623-1.3815 5.1749-14.301 10.337-28.608 15.442-42.934 4.6625-13.086 9.1988-26.217 13.898-39.29 4.0302-11.212 8.2716-22.348 12.314-33.555 6.9584-19.294 13.81-38.626 20.754-57.925 4.6537-12.933 9.4548-25.813 14.071-38.759 4.2783-11.999 8.2803-24.096 12.622-36.071 4.2909-11.834 8.9696-23.527 13.276-35.355 8.4946-23.334 16.884-46.707 25.234-70.094 1.8262-5.1147 3.305-10.354 4.9438-15.535 15.358-0.04544 30.715-0.090866 46.541-0.072814z" fill="#4FAAFD"/>
<path d="m748.57 244.11c-1.1706 5.2455-2.6494 10.484-4.4756 15.599-8.35 23.387-16.739 46.76-25.234 70.094-4.306 11.829-8.9847 23.522-13.276 35.355-4.342 11.975-8.3441 24.073-12.622 36.071-4.6163 12.946-9.4174 25.826-14.071 38.759-6.9443 19.299-13.796 38.631-20.754 57.925-4.0421 11.208-8.2836 22.343-12.314 33.555-4.6992 13.073-9.2355 26.204-13.898 39.29-5.1045 14.327-10.267 28.633-15.442 42.934-0.14233 0.39337-0.71753 0.63007-1.623 1.3815-38.029-105.39-75.956-210.5-113.88-315.61-0.43848-0.001953-0.87692-0.003876-1.3154-0.005799-37.643 104.41-75.286 208.83-112.93 313.24-0.39255-0.01709-0.78512-0.03418-1.1777-0.051331-2.8415-7.4811-5.7643-14.933-8.5057-22.45-4.3204-11.848-8.5462-23.731-12.762-35.616-5.5031-15.515-10.906-31.065-16.453-46.565-2.9646-8.2836-6.2009-16.47-9.2091-24.738-7.0199-19.295-13.992-38.607-20.953-57.924-6.2803-17.428-12.515-34.873-18.778-52.308-9.3018-25.894-18.578-51.798-27.931-77.673-4.3934-12.155-8.9924-24.235-13.393-36.387-1.6771-4.6311-3.0599-9.3689-4.5874-14.44 15.136-0.3817 30.282-0.3817 45.595-0.3817 28.993 80.387 57.965 160.72 87.441 242.44 29.36-81.384 58.386-161.85 87.518-242.6 16.953 0 33.932-0.07576 50.908 0.15096 1.2889 0.017227 3.1949 1.9431 3.7247 3.3827 6.49 17.636 12.722 35.366 19.128 53.033 11.08 30.556 22.315 61.056 33.336 91.633 10.916 30.284 21.641 60.638 32.491 90.946 0.42865 1.1974 1.2714 2.2467 2.4988 4.3592 29.467-81.683 58.625-162.51 87.834-243.48 15.012 0 29.829 0 45.114 0.063843z" fill="#4ACCFE"/>
</svg>
